<svg xmlns="http://www.w3.org/2000/svg" viewBox="0 0 740 740" width="740" height="740" preserveAspectRatio="xMidYMid meet" style="width: 100%; height: 100%; transform: translate3d(0px, 0px, 0px);"><defs><clipPath id="__lottie_element_2"><rect width="740" height="740" x="0" y="0"></rect></clipPath></defs><g clip-path="url(#__lottie_element_2)"><g transform="matrix(1,0,0,1,416,410)" opacity="1" style="display: block;"><g opacity="1" transform="matrix(1,0,0,1,0,0)"><path stroke-linecap="round" stroke-linejoin="round" fill-opacity="0" stroke="rgb(255,255,255)" stroke-opacity="1" stroke-width="60" d=" M80.8030014038086,83.88899993896484 C41.22800064086914,122.10299682617188 -12.640999794006348,145.61199951171875 -72,145.61199951171875 C-193.5030059814453,145.61199951171875 -292,47.1150016784668 -292,-74.38800048828125 C-292,-195.89100646972656 -193.5030059814453,-294.38800048828125 -72,-294.38800048828125 C49.50299835205078,-294.38800048828125 148,-195.89100646972656 148,-74.38800048828125 C148,-74.38800048828125 148,-74.38800048828125 148,-74.38800048828125 C148,-12.244000434875488 122.23400115966797,43.88100051879883 80.8030014038086,83.88899993896484"></path></g></g><g transform="matrix(1,0,0,1,416,410)" opacity="1" style="display: block;"><g opacity="1" transform="matrix(1,0,0,1,0,0)"><path stroke-linecap="round" stroke-linejoin="miter" fill-opacity="0" stroke-miterlimit="10" stroke="rgb(255,255,255)" stroke-opacity="1" stroke-width="60" d=" M86.54399871826172,88.54399871826172 C86.54399871826172,88.54399871826172 293.45599365234375,293.45599365234375 293.45599365234375,293.45599365234375"></path></g></g></g></svg>